<svg width="30" height="31" viewBox="0 0 30 31" fill="none" xmlns="http://www.w3.org/2000/svg">
<path d="M26.6967 10.9803V10.9839V22.6983C26.6967 24.996 26.0175 26.6786 24.9105 27.7856C23.8036 28.8926 22.121 29.5718 19.8232 29.5718H8.12353C5.83395 29.5718 4.15099 28.8931 3.0417 27.7838C1.93249 26.6746 1.25 24.988 1.25 22.6835V10.9839C1.25 8.68774 1.93193 7.00484 3.04111 5.89711C4.15057 4.78912 5.83392 4.11035 8.12353 4.11035H19.8379C22.1277 4.11035 23.8106 4.78922 24.9179 5.89653C26.0247 7.00329 26.7034 8.68496 26.6967 10.9803Z" stroke="#9C8AF0" stroke-width="2.5"/>
<path fill-rule="evenodd" clip-rule="evenodd" d="M20.0714 2.83113C22.7793 0.12329 25.3547 0.182157 27.9889 2.83113C29.3281 4.18506 29.9904 5.49483 29.9904 6.81932C29.9904 8.12909 29.3281 9.40943 27.9889 10.7486L26.3554 12.3969C26.2524 12.4999 26.1052 12.5588 25.9581 12.5588C25.9139 12.5588 25.8403 12.5588 25.7962 12.5441C22.1906 11.5139 19.3062 8.62945 18.276 5.0239C18.2172 4.83258 18.2613 4.62655 18.4085 4.47939L20.0714 2.83113ZM22.2051 13.1771C22.5583 13.3979 22.9409 13.5892 23.3383 13.7805C23.3744 13.796 23.4102 13.8114 23.4457 13.8266C23.8149 13.9852 24.1505 14.1293 24.4862 14.2367L16.5687 22.1542C16.0536 22.684 15.0823 23.1697 14.3612 23.2727L9.99039 23.8908C9.82851 23.9055 9.66662 23.9202 9.50474 23.9202C8.76891 23.9202 8.10667 23.67 7.62102 23.1844C7.04708 22.6104 6.7969 21.7422 6.92935 20.815L7.56216 16.4295C7.66517 15.7084 8.16554 14.7371 8.68062 14.222L16.5981 6.30456C16.7305 6.67248 16.8777 7.05511 17.069 7.46717C17.2456 7.8498 17.4369 8.21771 17.6577 8.58563C17.8343 8.89467 18.0256 9.189 18.1875 9.39503C18.3788 9.70408 18.5995 9.9837 18.7467 10.1456C18.8203 10.278 18.9086 10.3663 18.938 10.3958C19.3942 10.9403 19.8799 11.4406 20.3361 11.8085C20.4538 11.9263 20.5421 11.9999 20.5716 12.0146L20.5716 12.0146C20.8365 12.2353 21.1014 12.4561 21.3368 12.6032C21.6164 12.8093 21.9108 13.0006 22.2051 13.1771Z" fill="#5940CB"/>
</svg>
