<svg width="61" height="76" viewBox="0 0 61 76" fill="none" xmlns="http://www.w3.org/2000/svg">
<path d="M60.8996 22.8L38.0996 0H7.69961C5.68396 0 3.75087 0.800712 2.3256 2.22599C0.900321 3.65126 0.0996094 5.58435 0.0996094 7.6V68.4C0.0996094 70.4156 0.900321 72.3487 2.3256 73.774C3.75087 75.1993 5.68396 76 7.69961 76H53.2996C55.3153 76 57.2483 75.1993 58.6736 73.774C60.0989 72.3487 60.8996 70.4156 60.8996 68.4V22.8ZM19.0996 64.6H11.4996V30.4H19.0996V64.6ZM34.2996 64.6H26.6996V41.8H34.2996V64.6ZM49.4996 64.6H41.8996V53.2H49.4996V64.6ZM38.0996 26.6H34.2996V7.6L53.2996 26.6H38.0996Z" fill="#5940CB"/>
</svg>
