<svg width="93" height="76" viewBox="0 0 93 76" fill="none" xmlns="http://www.w3.org/2000/svg">
<path d="M13.7806 13.4535C13.7806 15.2604 12.0906 16.7305 10.0133 16.7305C7.9349 16.7305 6.24414 15.2604 6.24414 13.4535V7.92677C6.24414 6.11892 7.9349 4.64822 10.0133 4.64822C12.0906 4.64822 13.7806 6.11892 13.7806 7.92677V13.4535ZM10.0133 0C4.98836 0 0.900391 3.55589 0.900391 7.92677V13.4535C0.900391 17.8235 4.98836 21.3787 10.0133 21.3787C15.0371 21.3787 19.1244 17.8235 19.1244 13.4535V7.92677C19.1244 3.55589 15.0371 0 10.0133 0Z" fill="#5940CB"/>
<path d="M50.2689 13.4535C50.2689 15.2604 48.5781 16.7305 46.4998 16.7305C44.4225 16.7305 42.7324 15.2604 42.7324 13.4535V7.92677C42.7324 6.11892 44.4225 4.64822 46.4998 4.64822C48.5781 4.64822 50.2689 6.11892 50.2689 7.92677V13.4535ZM46.4998 0C41.4759 0 37.3887 3.55589 37.3887 7.92677V13.4535C37.3887 17.8235 41.4759 21.3787 46.4998 21.3787C51.5247 21.3787 55.6126 17.8235 55.6126 13.4535V7.92677C55.6126 3.55589 51.5247 0 46.4998 0Z" fill="#5940CB"/>
<path d="M86.7573 13.4535C86.7573 15.2604 85.0673 16.7305 82.99 16.7305C80.9116 16.7305 79.2207 15.2604 79.2207 13.4535V7.92677C79.2207 6.11892 80.9116 4.64822 82.99 4.64822C85.0673 4.64822 86.7573 6.11892 86.7573 7.92677V13.4535ZM82.99 0C77.9651 0 73.877 3.55589 73.877 7.92677V13.4535C73.877 17.8235 77.9651 21.3787 82.99 21.3787C88.0138 21.3787 92.1011 17.8235 92.1011 13.4535V7.92677C92.1011 3.55589 88.0138 0 82.99 0Z" fill="#5940CB"/>
<path d="M28.2559 19.8789C29.7314 19.8789 30.9277 18.8383 30.9277 17.5548V2.32411C30.9277 1.04058 29.7314 0 28.2559 0C26.7803 0 25.584 1.04058 25.584 2.32411V17.5548C25.584 18.8383 26.7803 19.8789 28.2559 19.8789Z" fill="#5940CB"/>
<path d="M64.7441 19.8789C66.2197 19.8789 67.416 18.8383 67.416 17.5548V2.32411C67.416 1.04058 66.2197 0 64.7441 0C63.2686 0 62.0723 1.04058 62.0723 2.32411V17.5548C62.0723 18.8383 63.2686 19.8789 64.7441 19.8789Z" fill="#5940CB"/>
<path d="M13.7806 68.0746C13.7806 69.8815 12.0906 71.3516 10.0133 71.3516C7.9349 71.3516 6.24414 69.8815 6.24414 68.0746V62.5463C6.24414 60.7394 7.9349 59.2693 10.0133 59.2693C12.0906 59.2693 13.7806 60.7394 13.7806 62.5463V68.0746ZM10.0133 54.6211C4.98836 54.6211 0.900391 58.1764 0.900391 62.5463V68.0746C0.900391 72.4445 4.98836 75.9998 10.0133 75.9998C15.0371 75.9998 19.1244 72.4445 19.1244 68.0746V62.5463C19.1244 58.1764 15.0371 54.6211 10.0133 54.6211Z" fill="#5940CB"/>
<path d="M50.2689 68.0746C50.2689 69.8815 48.5781 71.3516 46.4998 71.3516C44.4225 71.3516 42.7324 69.8815 42.7324 68.0746V62.5463C42.7324 60.7394 44.4225 59.2693 46.4998 59.2693C48.5781 59.2693 50.2689 60.7394 50.2689 62.5463V68.0746ZM46.4998 54.6211C41.4759 54.6211 37.3887 58.1764 37.3887 62.5463V68.0746C37.3887 72.4445 41.4759 75.9998 46.4998 75.9998C51.5247 75.9998 55.6126 72.4445 55.6126 68.0746V62.5463C55.6126 58.1764 51.5247 54.6211 46.4998 54.6211Z" fill="#5940CB"/>
<path d="M86.7573 68.0746C86.7573 69.8815 85.0673 71.3516 82.99 71.3516C80.9116 71.3516 79.2207 69.8815 79.2207 68.0746V62.5463C79.2207 60.7394 80.9116 59.2693 82.99 59.2693C85.0673 59.2693 86.7573 60.7394 86.7573 62.5463V68.0746ZM82.99 54.6211C77.9651 54.6211 73.877 58.1764 73.877 62.5463V68.0746C73.877 72.4445 77.9651 75.9998 82.99 75.9998C88.0138 75.9998 92.1011 72.4445 92.1011 68.0746V62.5463C92.1011 58.1764 88.0138 54.6211 82.99 54.6211Z" fill="#5940CB"/>
<path d="M28.2559 54.6211C26.7803 54.6211 25.584 55.6617 25.584 56.9452V72.1759C25.584 73.4594 26.7803 74.5 28.2559 74.5C29.7314 74.5 30.9277 73.4594 30.9277 72.1759V56.9452C30.9277 55.6617 29.7314 54.6211 28.2559 54.6211Z" fill="#5940CB"/>
<path d="M64.7441 54.6211C63.2686 54.6211 62.0723 55.6617 62.0723 56.9452V72.1759C62.0723 73.4594 63.2686 74.5 64.7441 74.5C66.2197 74.5 67.416 73.4594 67.416 72.1759V56.9452C67.416 55.6617 66.2197 54.6211 64.7441 54.6211Z" fill="#5940CB"/>
<path d="M32.0247 40.7625C32.0247 42.5703 30.3347 44.041 28.2574 44.041C26.179 44.041 24.4883 42.5703 24.4883 40.7625V35.2358C24.4883 33.4288 26.179 31.9588 28.2574 31.9588C30.3347 31.9588 32.0247 33.4288 32.0247 35.2358V40.7625ZM28.2574 27.3105C23.2325 27.3105 19.1445 30.8658 19.1445 35.2358V40.7625C19.1445 45.1334 23.2325 48.6893 28.2574 48.6893C33.2812 48.6893 37.3685 45.1334 37.3685 40.7625V35.2358C37.3685 30.8658 33.2812 27.3105 28.2574 27.3105Z" fill="#5940CB"/>
<path d="M68.5132 40.7625C68.5132 42.5703 66.8224 44.041 64.7441 44.041C62.6668 44.041 60.9766 42.5703 60.9766 40.7625V35.2358C60.9766 33.4288 62.6668 31.9588 64.7441 31.9588C66.8224 31.9588 68.5132 33.4288 68.5132 35.2358V40.7625ZM64.7441 27.3105C59.7202 27.3105 55.6328 30.8658 55.6328 35.2358V40.7625C55.6328 45.1334 59.7202 48.6893 64.7441 48.6893C69.769 48.6893 73.857 45.1334 73.857 40.7625V35.2358C73.857 30.8658 69.769 27.3105 64.7441 27.3105Z" fill="#5940CB"/>
<path d="M12.6855 44.8653V29.6347C12.6855 28.3511 11.4893 27.3105 10.0137 27.3105C8.53808 27.3105 7.3418 28.3511 7.3418 29.6347V44.8653C7.3418 46.1489 8.53808 47.1894 10.0137 47.1894C11.4893 47.1894 12.6855 46.1489 12.6855 44.8653Z" fill="#5940CB"/>
<path d="M85.4336 44.8653V29.6347C85.4336 28.3511 84.2373 27.3105 82.7617 27.3105C81.2861 27.3105 80.0898 28.3511 80.0898 29.6347V44.8653C80.0898 46.1489 81.2861 47.1894 82.7617 47.1894C84.2373 47.1894 85.4336 46.1489 85.4336 44.8653Z" fill="#5940CB"/>
<path d="M49.1719 44.8653V29.6347C49.1719 28.3511 47.9756 27.3105 46.5 27.3105C45.0244 27.3105 43.8281 28.3511 43.8281 29.6347V44.8653C43.8281 46.1489 45.0244 47.1894 46.5 47.1894C47.9756 47.1894 49.1719 46.1489 49.1719 44.8653Z" fill="#5940CB"/>
</svg>
