<svg width="81" height="76" viewBox="0 0 81 76" fill="none" xmlns="http://www.w3.org/2000/svg">
<path fill-rule="evenodd" clip-rule="evenodd" d="M36.8636 7.23808C20.7971 7.23808 7.77271 20.2005 7.77271 36.1904C7.77271 52.1804 20.7971 65.1427 36.8636 65.1427C38.8719 65.1427 40.4999 66.763 40.4999 68.7618C40.4999 70.7606 38.8719 72.3808 36.8636 72.3808C16.7805 72.3808 0.5 56.1776 0.5 36.1904C0.5 16.203 16.7805 0 36.8636 0C56.9464 0 73.2271 16.203 73.2271 36.1904C73.2271 38.1892 71.5991 39.8094 69.5908 39.8094C67.5824 39.8094 65.9544 38.1892 65.9544 36.1904C65.9544 20.2005 52.9301 7.23808 36.8636 7.23808ZM79.0958 47.8097C80.6813 49.0369 80.9667 51.3108 79.734 52.8883L62.7642 74.6025C62.1308 75.4132 61.1817 75.9177 60.1526 75.9908C59.1239 76.0639 58.1122 75.6984 57.3697 74.9858L48.885 66.843C47.4392 65.4558 47.3974 63.1646 48.7915 61.726C50.1854 60.2871 52.4875 60.2454 53.933 61.633L59.5064 66.9816L73.9929 48.4448C75.226 46.8669 77.5107 46.5828 79.0958 47.8097ZM40.4999 14.4762C40.4999 12.4774 38.8719 10.8571 36.8636 10.8571C34.8552 10.8571 33.2272 12.4774 33.2272 14.4762V36.1904C33.2272 37.1502 33.6105 38.0709 34.2923 38.7494L45.2014 49.6066C46.6214 51.0198 48.9239 51.0198 50.3439 49.6066C51.7639 48.1933 51.7639 45.9017 50.3439 44.4885L40.4999 34.6914V14.4762Z" fill="#5940CB"/>
</svg>
